<svg xmlns="http://www.w3.org/2000/svg" xmlns:xlink="http://www.w3.org/1999/xlink" width="64" zoomAndPan="magnify" viewBox="0 0 48 48" height="64" preserveAspectRatio="xMidYMid meet" version="1.2"><defs><clipPath id="da565e1bc9"><path d="M 0.488281 0 L 47.507812 0 L 47.507812 47.019531 L 0.488281 47.019531 Z M 0.488281 0 "/></clipPath><clipPath id="2fa0a54b8e"><path d="M 24 0 C 11.015625 0 0.488281 10.527344 0.488281 23.511719 C 0.488281 36.496094 11.015625 47.019531 24 47.019531 C 36.984375 47.019531 47.511719 36.496094 47.511719 23.511719 C 47.511719 10.527344 36.984375 0 24 0 Z M 24 0 "/></clipPath><clipPath id="4d6ee24176"><path d="M 12.429688 5.980469 L 35.203125 5.980469 L 35.203125 31.695312 L 12.429688 31.695312 Z M 12.429688 5.980469 "/></clipPath></defs><g id="e47274b65a"><g clip-rule="nonzero" clip-path="url(#da565e1bc9)"><g clip-rule="nonzero" clip-path="url(#2fa0a54b8e)"><path style=" stroke:none;fill-rule:nonzero;fill:#1800ad;fill-opacity:1;" d="M 0.488281 0 L 47.511719 0 L 47.511719 47.019531 L 0.488281 47.019531 Z M 0.488281 0 "/></g></g><g clip-rule="nonzero" clip-path="url(#4d6ee24176)"><path style=" stroke:none;fill-rule:evenodd;fill:#ffe7c2;fill-opacity:1;" d="M 34.320312 31.355469 C 33.976562 30.628906 33.574219 29.859375 33.132812 29.074219 L 33.054688 17.882812 L 33.054688 15.226562 C 33.054688 13.46875 33.546875 12.355469 35.203125 12.113281 L 35.203125 11.929688 L 29.171875 11.929688 L 29.171875 12.113281 C 30.828125 12.355469 31.324219 13.46875 31.324219 15.226562 L 31.324219 18.304688 L 31.367188 25.582031 L 32.285156 27.632812 C 30.691406 25 28.816406 22.375 27.472656 20.757812 C 21.660156 13.746094 15.429688 7.929688 12.429688 5.988281 C 12.625 7.34375 13.464844 9.824219 14.515625 11.492188 C 14.980469 11.535156 16.445312 11.777344 16.910156 11.910156 C 17.042969 11.921875 14.796875 11.847656 14.882812 11.964844 C 15.109375 12.382812 15.429688 12.953125 15.820312 13.617188 L 15.757812 22.996094 L 15.757812 26.074219 C 15.757812 27.832031 15.265625 28.941406 13.609375 29.1875 L 13.609375 29.371094 L 19.640625 29.371094 L 19.640625 29.1875 C 17.980469 28.941406 17.488281 27.832031 17.488281 26.074219 L 17.488281 23.417969 L 17.542969 16.941406 L 16.546875 14.816406 C 17.53125 16.394531 18.777344 18.230469 20.078125 19.761719 C 21.398438 19.945312 23.265625 19.921875 24.21875 19.738281 C 22.945312 20.347656 21.832031 20.363281 20.546875 20.296875 C 21.351562 21.1875 22.167969 21.9375 22.945312 22.417969 C 24.121094 23.148438 25.078125 23.230469 26.398438 23.226562 C 25.738281 23.402344 25.035156 23.53125 24.296875 23.613281 C 25.367188 23.882812 27.714844 23.769531 28.539062 23.660156 C 28.769531 23.539062 30.429688 25.78125 30.578125 26.039062 C 30.710938 26.273438 30.808594 26.492188 30.875 26.695312 C 31.164062 27.566406 30.972656 28.292969 30.644531 28.757812 C 31.917969 29.617188 33.167969 30.21875 34.320312 31.355469 "/></g><g style="fill:#ffe7c2;fill-opacity:1;"><g transform="translate(8.483226, 39.402976)"><path style="stroke:none" d="M 0.390625 0.140625 C 0.285156 0.234375 0.203125 0.21875 0.140625 0.09375 C 0.109375 0.0078125 0.09375 -0.0703125 0.09375 -0.15625 L 0.09375 -0.5 C 0.101562 -0.914062 0.132812 -1.335938 0.1875 -1.765625 C 0.1875 -1.804688 0.21875 -2.070312 0.28125 -2.5625 C 0.34375 -3.0625 0.394531 -3.4375 0.4375 -3.6875 C 0.445312 -3.738281 0.601562 -4.773438 0.90625 -6.796875 C 0.914062 -6.898438 0.929688 -7.0625 0.953125 -7.28125 C 0.984375 -7.5 1.007812 -7.660156 1.03125 -7.765625 C 1.039062 -7.816406 1.050781 -7.851562 1.0625 -7.875 C 1.070312 -7.894531 1.085938 -7.898438 1.109375 -7.890625 C 1.148438 -7.878906 1.171875 -7.835938 1.171875 -7.765625 L 1.171875 -7.546875 C 1.171875 -7.410156 1.03125 -6.328125 0.75 -4.296875 C 0.695312 -3.929688 0.628906 -3.390625 0.546875 -2.671875 C 0.515625 -2.460938 0.472656 -2.097656 0.421875 -1.578125 C 0.359375 -1.117188 0.320312 -0.660156 0.3125 -0.203125 L 0.3125 -0.125 C 0.3125 -0.0625 0.316406 -0.03125 0.328125 -0.03125 C 0.359375 -0.0195312 0.390625 -0.0390625 0.421875 -0.09375 L 0.5 -0.21875 C 0.550781 -0.289062 0.625 -0.40625 0.71875 -0.5625 C 0.84375 -0.769531 1.039062 -1.175781 1.3125 -1.78125 C 1.457031 -2.082031 1.863281 -2.988281 2.53125 -4.5 C 2.65625 -4.789062 2.863281 -5.207031 3.15625 -5.75 C 3.289062 -6.007812 3.453125 -6.234375 3.640625 -6.421875 C 3.691406 -6.484375 3.75 -6.535156 3.8125 -6.578125 C 3.90625 -6.640625 3.96875 -6.613281 4 -6.5 C 4.019531 -6.457031 4.03125 -6.398438 4.03125 -6.328125 C 4.03125 -6.109375 4.007812 -5.835938 3.96875 -5.515625 C 3.957031 -5.410156 3.847656 -4.789062 3.640625 -3.65625 C 3.523438 -3.09375 3.4375 -2.523438 3.375 -1.953125 C 3.351562 -1.703125 3.335938 -1.515625 3.328125 -1.390625 C 3.328125 -1.359375 3.328125 -1.304688 3.328125 -1.234375 C 3.335938 -1.171875 3.34375 -1.125 3.34375 -1.09375 C 3.34375 -1.050781 3.359375 -1.003906 3.390625 -0.953125 C 3.421875 -0.910156 3.460938 -0.90625 3.515625 -0.9375 C 3.554688 -0.957031 3.597656 -0.988281 3.640625 -1.03125 C 3.898438 -1.28125 4.113281 -1.519531 4.28125 -1.75 C 4.445312 -1.96875 4.695312 -2.304688 5.03125 -2.765625 C 5.050781 -2.796875 5.078125 -2.84375 5.109375 -2.90625 C 5.148438 -2.96875 5.175781 -3.007812 5.1875 -3.03125 C 5.207031 -3.050781 5.222656 -3.054688 5.234375 -3.046875 C 5.265625 -3.035156 5.273438 -3.015625 5.265625 -2.984375 L 5.21875 -2.84375 C 5.175781 -2.789062 5.140625 -2.742188 5.109375 -2.703125 C 5.046875 -2.609375 4.925781 -2.441406 4.75 -2.203125 C 4.582031 -1.960938 4.453125 -1.773438 4.359375 -1.640625 C 4.191406 -1.421875 3.96875 -1.175781 3.6875 -0.90625 C 3.65625 -0.863281 3.613281 -0.828125 3.5625 -0.796875 C 3.476562 -0.753906 3.398438 -0.765625 3.328125 -0.828125 C 3.273438 -0.867188 3.238281 -0.921875 3.21875 -0.984375 C 3.195312 -1.054688 3.1875 -1.144531 3.1875 -1.25 C 3.175781 -1.40625 3.191406 -1.640625 3.234375 -1.953125 C 3.285156 -2.503906 3.347656 -2.972656 3.421875 -3.359375 C 3.566406 -4.078125 3.660156 -4.554688 3.703125 -4.796875 C 3.816406 -5.460938 3.878906 -5.9375 3.890625 -6.21875 C 3.890625 -6.238281 3.890625 -6.257812 3.890625 -6.28125 C 3.898438 -6.3125 3.90625 -6.332031 3.90625 -6.34375 C 3.90625 -6.363281 3.898438 -6.382812 3.890625 -6.40625 C 3.878906 -6.425781 3.867188 -6.445312 3.859375 -6.46875 C 3.804688 -6.457031 3.738281 -6.410156 3.65625 -6.328125 C 3.507812 -6.160156 3.367188 -5.960938 3.234375 -5.734375 C 2.929688 -5.222656 2.625 -4.597656 2.3125 -3.859375 C 1.957031 -3.035156 1.519531 -2.0625 1 -0.9375 C 0.863281 -0.644531 0.703125 -0.34375 0.515625 -0.03125 C 0.460938 0.0507812 0.421875 0.109375 0.390625 0.140625 Z M 0.390625 0.140625 "/></g></g><g style="fill:#ffe7c2;fill-opacity:1;"><g transform="translate(13.563625, 39.402976)"><path style="stroke:none" d="M 1.140625 -2.625 C 0.992188 -2.59375 0.914062 -2.648438 0.90625 -2.796875 C 0.894531 -2.867188 0.898438 -2.953125 0.921875 -3.046875 C 0.929688 -3.117188 0.929688 -3.164062 0.921875 -3.1875 C 0.910156 -3.1875 0.898438 -3.179688 0.890625 -3.171875 C 0.878906 -3.171875 0.867188 -3.164062 0.859375 -3.15625 C 0.847656 -3.144531 0.835938 -3.132812 0.828125 -3.125 C 0.828125 -3.125 0.820312 -3.117188 0.8125 -3.109375 C 0.664062 -2.984375 0.53125 -2.890625 0.40625 -2.828125 C 0.363281 -2.804688 0.320312 -2.785156 0.28125 -2.765625 C 0.21875 -2.742188 0.164062 -2.75 0.125 -2.78125 C 0.09375 -2.8125 0.0820312 -2.859375 0.09375 -2.921875 C 0.09375 -2.929688 0.0976562 -2.957031 0.109375 -3 C 0.148438 -3.09375 0.207031 -3.164062 0.28125 -3.21875 C 0.414062 -3.3125 0.550781 -3.3125 0.6875 -3.21875 L 0.703125 -3.21875 C 0.753906 -3.1875 0.796875 -3.1875 0.828125 -3.21875 L 1 -3.390625 C 1.03125 -3.421875 1.054688 -3.425781 1.078125 -3.40625 C 1.097656 -3.382812 1.101562 -3.367188 1.09375 -3.359375 C 1.082031 -3.304688 1.066406 -3.226562 1.046875 -3.125 C 1.015625 -3 1 -2.890625 1 -2.796875 C 1.007812 -2.742188 1.039062 -2.71875 1.09375 -2.71875 C 1.195312 -2.738281 1.453125 -2.847656 1.859375 -3.046875 C 1.890625 -3.046875 1.90625 -3.035156 1.90625 -3.015625 C 1.925781 -2.984375 1.910156 -2.957031 1.859375 -2.9375 C 1.535156 -2.769531 1.296875 -2.664062 1.140625 -2.625 Z M 0.328125 -2.890625 C 0.398438 -2.910156 0.472656 -2.945312 0.546875 -3 C 0.585938 -3.03125 0.613281 -3.050781 0.625 -3.0625 C 0.625 -3.082031 0.613281 -3.097656 0.59375 -3.109375 C 0.570312 -3.117188 0.546875 -3.125 0.515625 -3.125 C 0.460938 -3.101562 0.425781 -3.085938 0.40625 -3.078125 C 0.320312 -3.023438 0.269531 -2.960938 0.25 -2.890625 C 0.28125 -2.867188 0.304688 -2.867188 0.328125 -2.890625 Z M 0.328125 -2.890625 "/></g></g><g style="fill:#ffe7c2;fill-opacity:1;"><g transform="translate(15.285794, 39.402976)"><path style="stroke:none" d="M 0.453125 -2.546875 C 0.285156 -2.441406 0.171875 -2.488281 0.109375 -2.6875 C 0.0976562 -2.707031 0.09375 -2.742188 0.09375 -2.796875 C 0.09375 -2.929688 0.128906 -3.050781 0.203125 -3.15625 C 0.234375 -3.195312 0.265625 -3.21875 0.296875 -3.21875 C 0.367188 -3.226562 0.40625 -3.203125 0.40625 -3.140625 C 0.40625 -3.140625 0.398438 -3.117188 0.390625 -3.078125 C 0.390625 -3.035156 0.382812 -3.007812 0.375 -3 C 0.363281 -2.925781 0.359375 -2.847656 0.359375 -2.765625 C 0.359375 -2.671875 0.398438 -2.644531 0.484375 -2.6875 C 0.597656 -2.75 0.679688 -2.796875 0.734375 -2.828125 C 0.796875 -2.867188 0.90625 -2.96875 1.0625 -3.125 C 1.113281 -3.175781 1.175781 -3.25 1.25 -3.34375 C 1.3125 -3.375 1.351562 -3.390625 1.375 -3.390625 C 1.40625 -3.367188 1.425781 -3.328125 1.4375 -3.265625 C 1.4375 -3.203125 1.4375 -3.15625 1.4375 -3.125 C 1.457031 -3.019531 1.472656 -2.941406 1.484375 -2.890625 C 1.535156 -2.734375 1.632812 -2.675781 1.78125 -2.71875 C 1.832031 -2.726562 1.90625 -2.757812 2 -2.8125 L 2.3125 -3 C 2.332031 -3.007812 2.363281 -3.019531 2.40625 -3.03125 C 2.40625 -3.039062 2.40625 -3.039062 2.40625 -3.03125 C 2.414062 -3.03125 2.421875 -3.023438 2.421875 -3.015625 C 2.441406 -3.003906 2.441406 -2.988281 2.421875 -2.96875 L 2.40625 -2.9375 C 2.21875 -2.820312 2.054688 -2.734375 1.921875 -2.671875 C 1.828125 -2.628906 1.757812 -2.609375 1.71875 -2.609375 C 1.582031 -2.597656 1.484375 -2.648438 1.421875 -2.765625 C 1.378906 -2.847656 1.359375 -2.925781 1.359375 -3 C 1.347656 -3.03125 1.34375 -3.085938 1.34375 -3.171875 C 1.34375 -3.210938 1.332031 -3.234375 1.3125 -3.234375 C 1.300781 -3.253906 1.269531 -3.238281 1.21875 -3.1875 L 0.984375 -2.953125 C 0.890625 -2.847656 0.726562 -2.722656 0.5 -2.578125 C 0.5 -2.566406 0.484375 -2.554688 0.453125 -2.546875 Z M 0.453125 -2.546875 "/></g></g><g style="fill:#ffe7c2;fill-opacity:1;"><g transform="translate(17.53418, 39.402976)"><path style="stroke:none" d="M 0.25 -2.5 C 0.175781 -2.445312 0.117188 -2.460938 0.078125 -2.546875 C 0.0546875 -2.578125 0.046875 -2.613281 0.046875 -2.65625 C 0.046875 -2.800781 0.0703125 -2.9375 0.125 -3.0625 L 0.15625 -3.09375 C 0.175781 -3.113281 0.203125 -3.117188 0.234375 -3.109375 C 0.253906 -3.097656 0.265625 -3.078125 0.265625 -3.046875 C 0.265625 -2.992188 0.257812 -2.9375 0.25 -2.875 C 0.25 -2.851562 0.242188 -2.828125 0.234375 -2.796875 C 0.234375 -2.773438 0.234375 -2.757812 0.234375 -2.75 C 0.234375 -2.726562 0.242188 -2.71875 0.265625 -2.71875 L 0.296875 -2.71875 C 0.335938 -2.757812 0.40625 -2.84375 0.5 -2.96875 C 0.601562 -3.144531 0.710938 -3.300781 0.828125 -3.4375 C 0.859375 -3.46875 0.898438 -3.507812 0.953125 -3.5625 C 0.960938 -3.570312 0.984375 -3.59375 1.015625 -3.625 C 1.117188 -3.695312 1.179688 -3.675781 1.203125 -3.5625 C 1.210938 -3.53125 1.21875 -3.488281 1.21875 -3.4375 C 1.21875 -3.382812 1.21875 -3.351562 1.21875 -3.34375 L 1.171875 -2.828125 C 1.160156 -2.804688 1.15625 -2.765625 1.15625 -2.703125 C 1.15625 -2.671875 1.160156 -2.648438 1.171875 -2.640625 C 1.179688 -2.640625 1.203125 -2.648438 1.234375 -2.671875 C 1.242188 -2.691406 1.265625 -2.722656 1.296875 -2.765625 C 1.328125 -2.804688 1.351562 -2.835938 1.375 -2.859375 C 1.445312 -2.953125 1.519531 -3.015625 1.59375 -3.046875 C 1.675781 -3.097656 1.753906 -3.085938 1.828125 -3.015625 L 1.90625 -2.921875 C 1.957031 -2.867188 2.015625 -2.828125 2.078125 -2.796875 C 2.160156 -2.765625 2.242188 -2.765625 2.328125 -2.796875 C 2.378906 -2.828125 2.453125 -2.882812 2.546875 -2.96875 C 2.578125 -2.988281 2.601562 -3.003906 2.625 -3.015625 C 2.644531 -3.023438 2.660156 -3.03125 2.671875 -3.03125 C 2.679688 -3.03125 2.691406 -3.023438 2.703125 -3.015625 C 2.703125 -2.984375 2.675781 -2.945312 2.625 -2.90625 C 2.5625 -2.84375 2.515625 -2.796875 2.484375 -2.765625 C 2.265625 -2.585938 2.039062 -2.613281 1.8125 -2.84375 C 1.789062 -2.863281 1.757812 -2.898438 1.71875 -2.953125 C 1.695312 -2.984375 1.671875 -2.988281 1.640625 -2.96875 C 1.554688 -2.9375 1.492188 -2.890625 1.453125 -2.828125 C 1.429688 -2.804688 1.40625 -2.773438 1.375 -2.734375 C 1.351562 -2.691406 1.332031 -2.664062 1.3125 -2.65625 C 1.28125 -2.601562 1.25 -2.5625 1.21875 -2.53125 C 1.132812 -2.457031 1.082031 -2.472656 1.0625 -2.578125 C 1.050781 -2.609375 1.046875 -2.65625 1.046875 -2.71875 L 1.078125 -3.03125 C 1.085938 -3.101562 1.101562 -3.222656 1.125 -3.390625 C 1.132812 -3.441406 1.128906 -3.488281 1.109375 -3.53125 C 1.097656 -3.550781 1.082031 -3.550781 1.0625 -3.53125 C 1.007812 -3.5 0.960938 -3.457031 0.921875 -3.40625 C 0.828125 -3.289062 0.710938 -3.128906 0.578125 -2.921875 C 0.492188 -2.785156 0.425781 -2.679688 0.375 -2.609375 C 0.332031 -2.546875 0.289062 -2.507812 0.25 -2.5 Z M 0.25 -2.5 "/></g></g><g style="fill:#ffe7c2;fill-opacity:1;"><g transform="translate(20.040894, 39.402976)"><path style="stroke:none" d="M 1.140625 -2.625 C 0.992188 -2.59375 0.914062 -2.648438 0.90625 -2.796875 C 0.894531 -2.867188 0.898438 -2.953125 0.921875 -3.046875 C 0.929688 -3.117188 0.929688 -3.164062 0.921875 -3.1875 C 0.910156 -3.1875 0.898438 -3.179688 0.890625 -3.171875 C 0.878906 -3.171875 0.867188 -3.164062 0.859375 -3.15625 C 0.847656 -3.144531 0.835938 -3.132812 0.828125 -3.125 C 0.828125 -3.125 0.820312 -3.117188 0.8125 -3.109375 C 0.664062 -2.984375 0.53125 -2.890625 0.40625 -2.828125 C 0.363281 -2.804688 0.320312 -2.785156 0.28125 -2.765625 C 0.21875 -2.742188 0.164062 -2.75 0.125 -2.78125 C 0.09375 -2.8125 0.0820312 -2.859375 0.09375 -2.921875 C 0.09375 -2.929688 0.0976562 -2.957031 0.109375 -3 C 0.148438 -3.09375 0.207031 -3.164062 0.28125 -3.21875 C 0.414062 -3.3125 0.550781 -3.3125 0.6875 -3.21875 L 0.703125 -3.21875 C 0.753906 -3.1875 0.796875 -3.1875 0.828125 -3.21875 L 1 -3.390625 C 1.03125 -3.421875 1.054688 -3.425781 1.078125 -3.40625 C 1.097656 -3.382812 1.101562 -3.367188 1.09375 -3.359375 C 1.082031 -3.304688 1.066406 -3.226562 1.046875 -3.125 C 1.015625 -3 1 -2.890625 1 -2.796875 C 1.007812 -2.742188 1.039062 -2.71875 1.09375 -2.71875 C 1.195312 -2.738281 1.453125 -2.847656 1.859375 -3.046875 C 1.890625 -3.046875 1.90625 -3.035156 1.90625 -3.015625 C 1.925781 -2.984375 1.910156 -2.957031 1.859375 -2.9375 C 1.535156 -2.769531 1.296875 -2.664062 1.140625 -2.625 Z M 0.328125 -2.890625 C 0.398438 -2.910156 0.472656 -2.945312 0.546875 -3 C 0.585938 -3.03125 0.613281 -3.050781 0.625 -3.0625 C 0.625 -3.082031 0.613281 -3.097656 0.59375 -3.109375 C 0.570312 -3.117188 0.546875 -3.125 0.515625 -3.125 C 0.460938 -3.101562 0.425781 -3.085938 0.40625 -3.078125 C 0.320312 -3.023438 0.269531 -2.960938 0.25 -2.890625 C 0.28125 -2.867188 0.304688 -2.867188 0.328125 -2.890625 Z M 0.328125 -2.890625 "/></g></g><g style="fill:#ffe7c2;fill-opacity:1;"><g transform="translate(21.763063, 39.402976)"><path style="stroke:none" d="M 0.265625 -2.484375 C 0.191406 -2.421875 0.140625 -2.4375 0.109375 -2.53125 C 0.0976562 -2.59375 0.0976562 -2.679688 0.109375 -2.796875 C 0.109375 -2.847656 0.125 -2.914062 0.15625 -3 C 0.164062 -3.039062 0.179688 -3.0625 0.203125 -3.0625 C 0.234375 -3.050781 0.25 -3.023438 0.25 -2.984375 C 0.238281 -2.929688 0.234375 -2.882812 0.234375 -2.84375 C 0.210938 -2.75 0.210938 -2.675781 0.234375 -2.625 C 0.316406 -2.707031 0.375 -2.765625 0.40625 -2.796875 C 0.519531 -2.910156 0.625 -2.992188 0.71875 -3.046875 C 0.851562 -3.140625 0.988281 -3.132812 1.125 -3.03125 C 1.1875 -2.988281 1.257812 -2.925781 1.34375 -2.84375 C 1.394531 -2.78125 1.492188 -2.757812 1.640625 -2.78125 C 1.785156 -2.8125 1.910156 -2.84375 2.015625 -2.875 C 2.128906 -2.90625 2.238281 -2.945312 2.34375 -3 C 2.363281 -3.007812 2.394531 -3.019531 2.4375 -3.03125 C 2.476562 -3.050781 2.507812 -3.0625 2.53125 -3.0625 C 2.5625 -3.0625 2.582031 -3.054688 2.59375 -3.046875 C 2.59375 -3.023438 2.585938 -3.007812 2.578125 -3 C 2.460938 -2.914062 2.320312 -2.835938 2.15625 -2.765625 C 1.988281 -2.703125 1.816406 -2.65625 1.640625 -2.625 C 1.472656 -2.601562 1.335938 -2.628906 1.234375 -2.703125 C 1.128906 -2.765625 1.054688 -2.816406 1.015625 -2.859375 C 0.941406 -2.910156 0.859375 -2.914062 0.765625 -2.875 C 0.628906 -2.800781 0.507812 -2.707031 0.40625 -2.59375 Z M 0.265625 -2.484375 "/></g></g><g style="fill:#ffe7c2;fill-opacity:1;"><g transform="translate(24.164533, 39.402976)"><path style="stroke:none" d=""/></g></g><g style="fill:#ffe7c2;fill-opacity:1;"><g transform="translate(26.843461, 39.402976)"><path style="stroke:none" d="M 5.328125 -3.03125 C 5.347656 -3.03125 5.363281 -3.019531 5.375 -3 C 5.375 -2.976562 5.367188 -2.96875 5.359375 -2.96875 C 5.347656 -2.945312 5.320312 -2.929688 5.28125 -2.921875 C 4.445312 -2.503906 3.75 -2.082031 3.1875 -1.65625 C 2.90625 -1.4375 2.582031 -1.148438 2.21875 -0.796875 C 2.164062 -0.753906 2.117188 -0.679688 2.078125 -0.578125 C 1.910156 -0.117188 1.6875 0.289062 1.40625 0.65625 L 1.265625 0.828125 C 1.234375 0.859375 1.207031 0.882812 1.1875 0.90625 C 1.144531 0.945312 1.097656 0.953125 1.046875 0.921875 C 1.015625 0.910156 1 0.867188 1 0.796875 C 1 0.710938 1.023438 0.628906 1.078125 0.546875 C 1.148438 0.390625 1.238281 0.234375 1.34375 0.078125 C 1.519531 -0.179688 1.707031 -0.414062 1.90625 -0.625 C 1.976562 -0.695312 2.019531 -0.757812 2.03125 -0.8125 C 2.207031 -1.445312 2.316406 -1.878906 2.359375 -2.109375 C 2.421875 -2.410156 2.394531 -2.710938 2.28125 -3.015625 C 2.175781 -3.242188 2.007812 -3.410156 1.78125 -3.515625 C 1.65625 -3.554688 1.46875 -3.601562 1.21875 -3.65625 C 1.132812 -3.664062 1.015625 -3.675781 0.859375 -3.6875 C 0.710938 -3.695312 0.609375 -3.707031 0.546875 -3.71875 C 0.535156 -3.71875 0.519531 -3.71875 0.5 -3.71875 C 0.476562 -3.726562 0.460938 -3.734375 0.453125 -3.734375 C 0.234375 -3.785156 0.113281 -3.925781 0.09375 -4.15625 C 0.09375 -4.25 0.113281 -4.363281 0.15625 -4.5 C 0.1875 -4.59375 0.242188 -4.71875 0.328125 -4.875 C 0.609375 -5.34375 0.921875 -5.738281 1.265625 -6.0625 C 1.535156 -6.3125 1.820312 -6.503906 2.125 -6.640625 C 2.300781 -6.710938 2.46875 -6.734375 2.625 -6.703125 C 2.707031 -6.691406 2.765625 -6.671875 2.796875 -6.640625 C 2.828125 -6.628906 2.84375 -6.601562 2.84375 -6.5625 C 2.832031 -6.519531 2.8125 -6.5 2.78125 -6.5 C 2.75 -6.488281 2.695312 -6.484375 2.625 -6.484375 C 2.476562 -6.484375 2.335938 -6.445312 2.203125 -6.375 C 1.941406 -6.238281 1.710938 -6.082031 1.515625 -5.90625 C 1.128906 -5.53125 0.804688 -5.117188 0.546875 -4.671875 C 0.492188 -4.578125 0.457031 -4.503906 0.4375 -4.453125 C 0.40625 -4.398438 0.378906 -4.34375 0.359375 -4.28125 C 0.328125 -4.15625 0.328125 -4.066406 0.359375 -4.015625 C 0.398438 -3.960938 0.484375 -3.921875 0.609375 -3.890625 C 0.648438 -3.878906 0.703125 -3.867188 0.765625 -3.859375 C 0.828125 -3.847656 0.894531 -3.835938 0.96875 -3.828125 C 1.050781 -3.816406 1.109375 -3.8125 1.140625 -3.8125 C 1.328125 -3.769531 1.523438 -3.710938 1.734375 -3.640625 C 2.097656 -3.523438 2.332031 -3.273438 2.4375 -2.890625 C 2.53125 -2.578125 2.535156 -2.242188 2.453125 -1.890625 C 2.359375 -1.554688 2.289062 -1.300781 2.25 -1.125 C 2.25 -1.113281 2.242188 -1.09375 2.234375 -1.0625 C 2.234375 -1.03125 2.234375 -1.007812 2.234375 -1 C 2.242188 -1 2.273438 -1.015625 2.328125 -1.046875 C 2.878906 -1.578125 3.503906 -2.046875 4.203125 -2.453125 C 4.253906 -2.484375 4.335938 -2.53125 4.453125 -2.59375 C 4.566406 -2.664062 4.648438 -2.71875 4.703125 -2.75 C 4.867188 -2.84375 5.046875 -2.925781 5.234375 -3 Z M 1.84375 -0.40625 L 1.84375 -0.421875 Z M 1.796875 -0.234375 C 1.835938 -0.296875 1.851562 -0.351562 1.84375 -0.40625 C 1.820312 -0.382812 1.796875 -0.359375 1.765625 -0.328125 C 1.742188 -0.296875 1.726562 -0.269531 1.71875 -0.25 C 1.5625 -0.0703125 1.410156 0.132812 1.265625 0.375 C 1.179688 0.53125 1.128906 0.644531 1.109375 0.71875 C 1.097656 0.757812 1.097656 0.785156 1.109375 0.796875 C 1.128906 0.796875 1.15625 0.78125 1.1875 0.75 C 1.25 0.664062 1.296875 0.601562 1.328125 0.5625 C 1.515625 0.289062 1.671875 0.0234375 1.796875 -0.234375 Z M 1.796875 -0.234375 "/></g></g><g style="fill:#ffe7c2;fill-opacity:1;"><g transform="translate(32.029103, 39.402976)"><path style="stroke:none" d="M 1.140625 -2.625 C 0.992188 -2.59375 0.914062 -2.648438 0.90625 -2.796875 C 0.894531 -2.867188 0.898438 -2.953125 0.921875 -3.046875 C 0.929688 -3.117188 0.929688 -3.164062 0.921875 -3.1875 C 0.910156 -3.1875 0.898438 -3.179688 0.890625 -3.171875 C 0.878906 -3.171875 0.867188 -3.164062 0.859375 -3.15625 C 0.847656 -3.144531 0.835938 -3.132812 0.828125 -3.125 C 0.828125 -3.125 0.820312 -3.117188 0.8125 -3.109375 C 0.664062 -2.984375 0.53125 -2.890625 0.40625 -2.828125 C 0.363281 -2.804688 0.320312 -2.785156 0.28125 -2.765625 C 0.21875 -2.742188 0.164062 -2.75 0.125 -2.78125 C 0.09375 -2.8125 0.0820312 -2.859375 0.09375 -2.921875 C 0.09375 -2.929688 0.0976562 -2.957031 0.109375 -3 C 0.148438 -3.09375 0.207031 -3.164062 0.28125 -3.21875 C 0.414062 -3.3125 0.550781 -3.3125 0.6875 -3.21875 L 0.703125 -3.21875 C 0.753906 -3.1875 0.796875 -3.1875 0.828125 -3.21875 L 1 -3.390625 C 1.03125 -3.421875 1.054688 -3.425781 1.078125 -3.40625 C 1.097656 -3.382812 1.101562 -3.367188 1.09375 -3.359375 C 1.082031 -3.304688 1.066406 -3.226562 1.046875 -3.125 C 1.015625 -3 1 -2.890625 1 -2.796875 C 1.007812 -2.742188 1.039062 -2.71875 1.09375 -2.71875 C 1.195312 -2.738281 1.453125 -2.847656 1.859375 -3.046875 C 1.890625 -3.046875 1.90625 -3.035156 1.90625 -3.015625 C 1.925781 -2.984375 1.910156 -2.957031 1.859375 -2.9375 C 1.535156 -2.769531 1.296875 -2.664062 1.140625 -2.625 Z M 0.328125 -2.890625 C 0.398438 -2.910156 0.472656 -2.945312 0.546875 -3 C 0.585938 -3.03125 0.613281 -3.050781 0.625 -3.0625 C 0.625 -3.082031 0.613281 -3.097656 0.59375 -3.109375 C 0.570312 -3.117188 0.546875 -3.125 0.515625 -3.125 C 0.460938 -3.101562 0.425781 -3.085938 0.40625 -3.078125 C 0.320312 -3.023438 0.269531 -2.960938 0.25 -2.890625 C 0.28125 -2.867188 0.304688 -2.867188 0.328125 -2.890625 Z M 0.328125 -2.890625 "/></g></g><g style="fill:#ffe7c2;fill-opacity:1;"><g transform="translate(33.751273, 39.402976)"><path style="stroke:none" d="M 0.1875 -3.609375 C 0.15625 -3.628906 0.140625 -3.660156 0.140625 -3.703125 C 0.140625 -3.773438 0.164062 -3.8125 0.21875 -3.8125 C 0.257812 -3.8125 0.28125 -3.785156 0.28125 -3.734375 C 0.28125 -3.710938 0.28125 -3.703125 0.28125 -3.703125 C 0.28125 -3.671875 0.269531 -3.644531 0.25 -3.625 C 0.226562 -3.613281 0.207031 -3.609375 0.1875 -3.609375 Z M -0.75 0.859375 C -0.832031 0.890625 -0.90625 0.878906 -0.96875 0.828125 C -1.039062 0.785156 -1.082031 0.71875 -1.09375 0.625 C -1.101562 0.507812 -1.09375 0.367188 -1.0625 0.203125 C -1.019531 0.00390625 -0.960938 -0.179688 -0.890625 -0.359375 C -0.640625 -0.984375 -0.332031 -1.515625 0.03125 -1.953125 C 0.101562 -2.046875 0.140625 -2.140625 0.140625 -2.234375 C 0.128906 -2.265625 0.125 -2.351562 0.125 -2.5 L 0.109375 -2.9375 C 0.109375 -2.957031 0.109375 -2.972656 0.109375 -2.984375 C 0.117188 -2.992188 0.125 -3.003906 0.125 -3.015625 C 0.132812 -3.066406 0.15625 -3.085938 0.1875 -3.078125 C 0.21875 -3.078125 0.238281 -3.0625 0.25 -3.03125 C 0.269531 -2.976562 0.285156 -2.867188 0.296875 -2.703125 C 0.296875 -2.671875 0.296875 -2.617188 0.296875 -2.546875 C 0.304688 -2.484375 0.3125 -2.4375 0.3125 -2.40625 L 0.3125 -2.375 L 0.328125 -2.359375 C 0.347656 -2.347656 0.363281 -2.351562 0.375 -2.375 C 0.570312 -2.59375 0.78125 -2.773438 1 -2.921875 L 1.171875 -3.046875 C 1.179688 -3.046875 1.1875 -3.039062 1.1875 -3.03125 C 1.195312 -3.019531 1.203125 -3.007812 1.203125 -3 C 1.140625 -2.945312 1.085938 -2.90625 1.046875 -2.875 C 0.816406 -2.707031 0.609375 -2.523438 0.421875 -2.328125 C 0.347656 -2.242188 0.3125 -2.160156 0.3125 -2.078125 C 0.300781 -1.640625 0.285156 -1.34375 0.265625 -1.1875 C 0.160156 -0.644531 0.0390625 -0.203125 -0.09375 0.140625 C -0.164062 0.335938 -0.28125 0.515625 -0.4375 0.671875 C -0.53125 0.765625 -0.632812 0.828125 -0.75 0.859375 Z M -0.78125 0.78125 C -0.71875 0.78125 -0.664062 0.757812 -0.625 0.71875 C -0.5625 0.675781 -0.507812 0.625 -0.46875 0.5625 C -0.3125 0.382812 -0.203125 0.164062 -0.140625 -0.09375 C -0.0234375 -0.457031 0.0507812 -0.882812 0.09375 -1.375 C 0.101562 -1.488281 0.109375 -1.675781 0.109375 -1.9375 C 0.0859375 -1.925781 0.0703125 -1.914062 0.0625 -1.90625 C 0.0625 -1.894531 0.046875 -1.878906 0.015625 -1.859375 C -0.347656 -1.410156 -0.640625 -0.882812 -0.859375 -0.28125 C -0.941406 -0.0625 -0.992188 0.144531 -1.015625 0.34375 C -1.035156 0.414062 -1.039062 0.503906 -1.03125 0.609375 C -1.007812 0.765625 -0.925781 0.820312 -0.78125 0.78125 Z M -0.78125 0.78125 "/></g></g><g style="fill:#ffe7c2;fill-opacity:1;"><g transform="translate(34.765438, 39.402976)"><path style="stroke:none" d="M 0.1875 -3.609375 C 0.15625 -3.628906 0.140625 -3.660156 0.140625 -3.703125 C 0.140625 -3.773438 0.164062 -3.8125 0.21875 -3.8125 C 0.257812 -3.8125 0.28125 -3.785156 0.28125 -3.734375 C 0.28125 -3.710938 0.28125 -3.703125 0.28125 -3.703125 C 0.28125 -3.671875 0.269531 -3.644531 0.25 -3.625 C 0.226562 -3.613281 0.207031 -3.609375 0.1875 -3.609375 Z M -0.75 0.859375 C -0.832031 0.890625 -0.90625 0.878906 -0.96875 0.828125 C -1.039062 0.785156 -1.082031 0.71875 -1.09375 0.625 C -1.101562 0.507812 -1.09375 0.367188 -1.0625 0.203125 C -1.019531 0.00390625 -0.960938 -0.179688 -0.890625 -0.359375 C -0.640625 -0.984375 -0.332031 -1.515625 0.03125 -1.953125 C 0.101562 -2.046875 0.140625 -2.140625 0.140625 -2.234375 C 0.128906 -2.265625 0.125 -2.351562 0.125 -2.5 L 0.109375 -2.9375 C 0.109375 -2.957031 0.109375 -2.972656 0.109375 -2.984375 C 0.117188 -2.992188 0.125 -3.003906 0.125 -3.015625 C 0.132812 -3.066406 0.15625 -3.085938 0.1875 -3.078125 C 0.21875 -3.078125 0.238281 -3.0625 0.25 -3.03125 C 0.269531 -2.976562 0.285156 -2.867188 0.296875 -2.703125 C 0.296875 -2.671875 0.296875 -2.617188 0.296875 -2.546875 C 0.304688 -2.484375 0.3125 -2.4375 0.3125 -2.40625 L 0.3125 -2.375 L 0.328125 -2.359375 C 0.347656 -2.347656 0.363281 -2.351562 0.375 -2.375 C 0.570312 -2.59375 0.78125 -2.773438 1 -2.921875 L 1.171875 -3.046875 C 1.179688 -3.046875 1.1875 -3.039062 1.1875 -3.03125 C 1.195312 -3.019531 1.203125 -3.007812 1.203125 -3 C 1.140625 -2.945312 1.085938 -2.90625 1.046875 -2.875 C 0.816406 -2.707031 0.609375 -2.523438 0.421875 -2.328125 C 0.347656 -2.242188 0.3125 -2.160156 0.3125 -2.078125 C 0.300781 -1.640625 0.285156 -1.34375 0.265625 -1.1875 C 0.160156 -0.644531 0.0390625 -0.203125 -0.09375 0.140625 C -0.164062 0.335938 -0.28125 0.515625 -0.4375 0.671875 C -0.53125 0.765625 -0.632812 0.828125 -0.75 0.859375 Z M -0.78125 0.78125 C -0.71875 0.78125 -0.664062 0.757812 -0.625 0.71875 C -0.5625 0.675781 -0.507812 0.625 -0.46875 0.5625 C -0.3125 0.382812 -0.203125 0.164062 -0.140625 -0.09375 C -0.0234375 -0.457031 0.0507812 -0.882812 0.09375 -1.375 C 0.101562 -1.488281 0.109375 -1.675781 0.109375 -1.9375 C 0.0859375 -1.925781 0.0703125 -1.914062 0.0625 -1.90625 C 0.0625 -1.894531 0.046875 -1.878906 0.015625 -1.859375 C -0.347656 -1.410156 -0.640625 -0.882812 -0.859375 -0.28125 C -0.941406 -0.0625 -0.992188 0.144531 -1.015625 0.34375 C -1.035156 0.414062 -1.039062 0.503906 -1.03125 0.609375 C -1.007812 0.765625 -0.925781 0.820312 -0.78125 0.78125 Z M -0.78125 0.78125 "/></g></g><g style="fill:#ffe7c2;fill-opacity:1;"><g transform="translate(35.779604, 39.402976)"><path style="stroke:none" d="M 1.140625 -2.625 C 0.992188 -2.59375 0.914062 -2.648438 0.90625 -2.796875 C 0.894531 -2.867188 0.898438 -2.953125 0.921875 -3.046875 C 0.929688 -3.117188 0.929688 -3.164062 0.921875 -3.1875 C 0.910156 -3.1875 0.898438 -3.179688 0.890625 -3.171875 C 0.878906 -3.171875 0.867188 -3.164062 0.859375 -3.15625 C 0.847656 -3.144531 0.835938 -3.132812 0.828125 -3.125 C 0.828125 -3.125 0.820312 -3.117188 0.8125 -3.109375 C 0.664062 -2.984375 0.53125 -2.890625 0.40625 -2.828125 C 0.363281 -2.804688 0.320312 -2.785156 0.28125 -2.765625 C 0.21875 -2.742188 0.164062 -2.75 0.125 -2.78125 C 0.09375 -2.8125 0.0820312 -2.859375 0.09375 -2.921875 C 0.09375 -2.929688 0.0976562 -2.957031 0.109375 -3 C 0.148438 -3.09375 0.207031 -3.164062 0.28125 -3.21875 C 0.414062 -3.3125 0.550781 -3.3125 0.6875 -3.21875 L 0.703125 -3.21875 C 0.753906 -3.1875 0.796875 -3.1875 0.828125 -3.21875 L 1 -3.390625 C 1.03125 -3.421875 1.054688 -3.425781 1.078125 -3.40625 C 1.097656 -3.382812 1.101562 -3.367188 1.09375 -3.359375 C 1.082031 -3.304688 1.066406 -3.226562 1.046875 -3.125 C 1.015625 -3 1 -2.890625 1 -2.796875 C 1.007812 -2.742188 1.039062 -2.71875 1.09375 -2.71875 C 1.195312 -2.738281 1.453125 -2.847656 1.859375 -3.046875 C 1.890625 -3.046875 1.90625 -3.035156 1.90625 -3.015625 C 1.925781 -2.984375 1.910156 -2.957031 1.859375 -2.9375 C 1.535156 -2.769531 1.296875 -2.664062 1.140625 -2.625 Z M 0.328125 -2.890625 C 0.398438 -2.910156 0.472656 -2.945312 0.546875 -3 C 0.585938 -3.03125 0.613281 -3.050781 0.625 -3.0625 C 0.625 -3.082031 0.613281 -3.097656 0.59375 -3.109375 C 0.570312 -3.117188 0.546875 -3.125 0.515625 -3.125 C 0.460938 -3.101562 0.425781 -3.085938 0.40625 -3.078125 C 0.320312 -3.023438 0.269531 -2.960938 0.25 -2.890625 C 0.28125 -2.867188 0.304688 -2.867188 0.328125 -2.890625 Z M 0.328125 -2.890625 "/></g></g><g style="fill:#ffe7c2;fill-opacity:1;"><g transform="translate(37.501773, 39.402976)"><path style="stroke:none" d="M 0.1875 -1.9375 C 0.09375 -1.894531 0.0078125 -1.914062 -0.0625 -2 C -0.175781 -2.113281 -0.21875 -2.242188 -0.1875 -2.390625 C -0.132812 -2.703125 -0.00390625 -2.960938 0.203125 -3.171875 L 0.328125 -3.25 C 0.347656 -3.257812 0.382812 -3.265625 0.4375 -3.265625 C 0.5 -3.265625 0.535156 -3.234375 0.546875 -3.171875 C 0.554688 -3.117188 0.539062 -3.078125 0.5 -3.046875 C 0.289062 -2.898438 0.15625 -2.644531 0.09375 -2.28125 C 0.0703125 -2.226562 0.0703125 -2.171875 0.09375 -2.109375 C 0.125 -2.054688 0.15625 -2.039062 0.1875 -2.0625 C 0.238281 -2.070312 0.285156 -2.09375 0.328125 -2.125 C 0.429688 -2.1875 0.515625 -2.253906 0.578125 -2.328125 C 0.722656 -2.484375 0.921875 -2.757812 1.171875 -3.15625 C 1.191406 -3.195312 1.179688 -3.226562 1.140625 -3.25 C 0.847656 -3.488281 0.648438 -3.863281 0.546875 -4.375 C 0.441406 -4.914062 0.484375 -5.46875 0.671875 -6.03125 C 0.722656 -6.164062 0.800781 -6.304688 0.90625 -6.453125 C 1.019531 -6.609375 1.164062 -6.738281 1.34375 -6.84375 C 1.425781 -6.882812 1.515625 -6.910156 1.609375 -6.921875 C 1.835938 -6.960938 2 -6.878906 2.09375 -6.671875 C 2.175781 -6.515625 2.210938 -6.320312 2.203125 -6.09375 C 2.179688 -5.707031 2.113281 -5.320312 2 -4.9375 C 1.875 -4.519531 1.671875 -4.015625 1.390625 -3.421875 C 1.378906 -3.410156 1.375 -3.394531 1.375 -3.375 C 1.332031 -3.300781 1.332031 -3.253906 1.375 -3.234375 L 1.46875 -3.1875 C 1.5625 -3.144531 1.6875 -3.109375 1.84375 -3.078125 C 1.875 -3.066406 1.921875 -3.054688 1.984375 -3.046875 C 2.046875 -3.046875 2.085938 -3.046875 2.109375 -3.046875 C 2.140625 -3.023438 2.15625 -3.007812 2.15625 -3 C 2.15625 -2.988281 2.140625 -2.976562 2.109375 -2.96875 L 2.0625 -2.96875 C 1.789062 -2.96875 1.5625 -3.019531 1.375 -3.125 C 1.34375 -3.132812 1.320312 -3.140625 1.3125 -3.140625 C 1.28125 -3.160156 1.253906 -3.15625 1.234375 -3.125 C 1.210938 -3.101562 1.191406 -3.066406 1.171875 -3.015625 C 1.023438 -2.796875 0.914062 -2.632812 0.84375 -2.53125 C 0.726562 -2.34375 0.585938 -2.191406 0.421875 -2.078125 C 0.359375 -2.015625 0.28125 -1.96875 0.1875 -1.9375 Z M 1.1875 -3.34375 C 1.226562 -3.320312 1.257812 -3.328125 1.28125 -3.359375 C 1.300781 -3.390625 1.3125 -3.410156 1.3125 -3.421875 C 1.738281 -4.273438 1.992188 -5.019531 2.078125 -5.65625 C 2.128906 -5.976562 2.132812 -6.222656 2.09375 -6.390625 C 2.070312 -6.515625 2.039062 -6.601562 2 -6.65625 C 1.925781 -6.789062 1.8125 -6.851562 1.65625 -6.84375 C 1.53125 -6.832031 1.421875 -6.789062 1.328125 -6.71875 C 1.109375 -6.582031 0.929688 -6.375 0.796875 -6.09375 C 0.679688 -5.8125 0.609375 -5.425781 0.578125 -4.9375 C 0.597656 -4.613281 0.628906 -4.367188 0.671875 -4.203125 C 0.742188 -3.953125 0.847656 -3.738281 0.984375 -3.5625 C 1.046875 -3.488281 1.113281 -3.414062 1.1875 -3.34375 Z M 1.1875 -3.34375 "/></g></g></g></svg>